<?xml version="1.0" encoding="UTF-8"?>
<svg width="24px" height="24px" viewBox="0 0 24 24" version="1.1" xmlns="http://www.w3.org/2000/svg" xmlns:xlink="http://www.w3.org/1999/xlink">
    <title>USB Icon</title>
    <g stroke="none" stroke-width="1" fill="none" fill-rule="evenodd">
        <path d="M15,7 L15,4 C15,3.44771525 15.4477153,3 16,3 C16.5522847,3 17,3.44771525 17,4 L17,7 L18,7 C18.5522847,7 19,7.44771525 19,8 L19,16 C19,17.1045695 18.1045695,18 17,18 L15,18 L15,20 C15,20.5522847 14.5522847,21 14,21 L10,21 C9.44771525,21 9,20.5522847 9,20 L9,18 L7,18 C5.8954305,18 5,17.1045695 5,16 L5,8 C5,7.44771525 5.44771525,7 6,7 L7,7 L7,4 C7,3.44771525 7.44771525,3 8,3 C8.55228475,3 9,3.44771525 9,4 L9,7 L15,7 Z M7,9 L7,16 L17,16 L17,9 L7,9 Z M11,18 L11,19 L13,19 L13,18 L11,18 Z" fill="#0ea5e9"></path>
    </g>
</svg>
